<svg xmlns="http://www.w3.org/2000/svg" viewBox="0 0 120 120" width="120" height="120">
  <defs>
    <filter id="pencilTexture">
      <feTurbulence type="fractalNoise" baseFrequency="0.04" numOctaves="5" result="noise"/>
      <feDisplacementMap in="SourceGraphic" in2="noise" scale="1" xChannelSelector="R" yChannelSelector="G"/>
    </filter>
  </defs>
  <g filter="url(#pencilTexture)">
    <path d="M25 50 L25 100 L95 100 L95 50 Z" stroke="#5D4037" stroke-width="2.5" fill="none" stroke-linecap="round" stroke-linejoin="round"/>
    <path d="M26 51 L26 99 L94 99 L94 51 Z" stroke="#8B5A2B" stroke-width="1.5" fill="none" opacity="0.4"/>
    <path d="M38 50 L38 35 Q38 15 60 15 Q82 15 82 35 L82 50" stroke="#5D4037" stroke-width="2.5" fill="none" stroke-linecap="round"/>
    <path d="M39 49 L39 36 Q39 16 60 16 Q81 16 81 36 L81 49" stroke="#8B5A2B" stroke-width="1.5" fill="none" stroke-linecap="round" opacity="0.4"/>
    <circle cx="60" cy="70" r="8" stroke="#5D4037" stroke-width="2" fill="none"/>
    <path d="M60 78 L60 88" stroke="#5D4037" stroke-width="2.5" fill="none" stroke-linecap="round"/>
    <path d="M42 20 Q50 14 60 16" stroke="#D4A574" stroke-width="2.5" fill="none" stroke-linecap="round" opacity="0.5"/>
    <path d="M30 55 Q35 50 42 52" stroke="#D4A574" stroke-width="2" fill="none" stroke-linecap="round" opacity="0.4"/>
  </g>
  <path d="M15 108 L17 106" stroke="#8B5A2B" stroke-width="1" opacity="0.3"/>
  <path d="M103 108 L105 110" stroke="#8B5A2B" stroke-width="1" opacity="0.3"/>
</svg>